<?xml version="1.0" encoding="utf-8"?>
<!-- Generator: Adobe Illustrator 24.1.2, SVG Export Plug-In . SVG Version: 6.00 Build 0)  -->
<svg version="1.1" id="Layer_1" xmlns="http://www.w3.org/2000/svg" xmlns:xlink="http://www.w3.org/1999/xlink" x="0px" y="0px"
	 viewBox="0 0 135 40" style="enable-background:new 0 0 135 40;" xml:space="preserve">
<style type="text/css">
	.st0{fill:#FFFFFF;}
	.st1{fill:url(#SVGID_1_);}
	.st2{fill:url(#SVGID_2_);}
	.st3{fill:url(#SVGID_3_);}
	.st4{fill:url(#SVGID_4_);}
	.st5{opacity:0.2;enable-background:new    ;}
	.st6{opacity:0.12;enable-background:new    ;}
	.st7{opacity:0.25;fill:#FFFFFF;enable-background:new    ;}
	.st8{fill:#FFFFFF;stroke:#FFFFFF;stroke-width:0.2;stroke-miterlimit:10;}
</style>
<g>
	<path d="M130,40H5c-2.75,0-5-2.25-5-5V5c0-2.75,2.25-5,5-5h125c2.75,0,5,2.25,5,5v30C135,37.75,132.75,40,130,40z"/>
</g>
<g>
	<path class="st0" d="M67.74,21.75c-2.35,0-4.27,1.79-4.27,4.25c0,2.45,1.92,4.25,4.27,4.25c2.35,0,4.27-1.8,4.27-4.25
		C72.01,23.54,70.09,21.75,67.74,21.75z M67.74,28.58c-1.29,0-2.4-1.06-2.4-2.58c0-1.53,1.11-2.58,2.4-2.58
		c1.29,0,2.4,1.05,2.4,2.58C70.14,27.52,69.03,28.58,67.74,28.58z M58.43,21.75c-2.35,0-4.27,1.79-4.27,4.25
		c0,2.45,1.92,4.25,4.27,4.25c2.35,0,4.27-1.8,4.27-4.25C62.7,23.54,60.78,21.75,58.43,21.75z M58.43,28.58
		c-1.29,0-2.4-1.06-2.4-2.58c0-1.53,1.11-2.58,2.4-2.58c1.29,0,2.4,1.05,2.4,2.58C60.83,27.52,59.72,28.58,58.43,28.58z
		 M47.35,23.06v1.8h4.32c-0.13,1.01-0.47,1.76-0.98,2.27c-0.63,0.63-1.61,1.32-3.33,1.32c-2.66,0-4.74-2.14-4.74-4.8
		s2.08-4.8,4.74-4.8c1.43,0,2.48,0.56,3.25,1.29l1.27-1.27c-1.08-1.03-2.51-1.82-4.53-1.82c-3.64,0-6.7,2.96-6.7,6.61
		c0,3.64,3.06,6.61,6.7,6.61c1.97,0,3.45-0.64,4.61-1.85c1.19-1.19,1.56-2.87,1.56-4.22c0-0.42-0.03-0.81-0.1-1.13H47.35z
		 M92.66,24.46c-0.35-0.95-1.43-2.71-3.64-2.71C86.82,21.75,85,23.48,85,26c0,2.38,1.8,4.25,4.22,4.25c1.95,0,3.08-1.19,3.54-1.88
		l-1.45-0.97c-0.48,0.71-1.14,1.18-2.09,1.18c-0.95,0-1.63-0.44-2.06-1.29l5.69-2.35L92.66,24.46z M86.86,25.88
		c-0.05-1.64,1.27-2.48,2.22-2.48c0.74,0,1.37,0.37,1.58,0.9L86.86,25.88z M82.23,30h1.87V17.5h-1.87V30z M79.17,22.7h-0.06
		c-0.42-0.5-1.22-0.95-2.24-0.95c-2.13,0-4.08,1.87-4.08,4.27c0,2.38,1.95,4.24,4.08,4.24c1.01,0,1.82-0.45,2.24-0.97h0.06v0.61
		c0,1.63-0.87,2.5-2.27,2.5c-1.14,0-1.85-0.82-2.14-1.51l-1.63,0.68c0.47,1.13,1.71,2.51,3.77,2.51c2.19,0,4.04-1.29,4.04-4.43
		v-7.64h-1.77V22.7z M77.03,28.58c-1.29,0-2.37-1.08-2.37-2.56c0-1.5,1.08-2.59,2.37-2.59c1.27,0,2.27,1.1,2.27,2.59
		C79.3,27.5,78.3,28.58,77.03,28.58z M101.41,17.5h-4.47V30h1.87v-4.74h2.61c2.07,0,4.1-1.5,4.1-3.88S103.48,17.5,101.41,17.5z
		 M101.46,23.52h-2.65v-4.29h2.65c1.4,0,2.19,1.16,2.19,2.14C103.65,22.35,102.85,23.52,101.46,23.52z M112.99,21.73
		c-1.35,0-2.75,0.6-3.33,1.91l1.66,0.69c0.35-0.69,1.01-0.92,1.7-0.92c0.97,0,1.95,0.58,1.96,1.61v0.13
		c-0.34-0.19-1.06-0.48-1.95-0.48c-1.79,0-3.6,0.98-3.6,2.81c0,1.67,1.46,2.75,3.1,2.75c1.25,0,1.95-0.56,2.38-1.22h0.06v0.97h1.8
		v-4.79C116.79,22.97,115.13,21.73,112.99,21.73z M112.77,28.58c-0.61,0-1.46-0.31-1.46-1.06c0-0.96,1.06-1.33,1.98-1.33
		c0.82,0,1.21,0.18,1.7,0.42C114.84,27.76,113.84,28.58,112.77,28.58z M123.35,22l-2.14,5.42h-0.06L118.93,22h-2.01l3.33,7.58
		l-1.9,4.21h1.95L125.42,22H123.35z M106.54,30h1.87V17.5h-1.87V30z"/>
	<g>
		
			<linearGradient id="SVGID_1_" gradientUnits="userSpaceOnUse" x1="21.4044" y1="34.1509" x2="4.622" y2="17.3685" gradientTransform="matrix(1 0 0 -1 0 42.8608)">
			<stop  offset="0" style="stop-color:#00A0FF"/>
			<stop  offset="6.574450e-03" style="stop-color:#00A1FF"/>
			<stop  offset="0.2601" style="stop-color:#00BEFF"/>
			<stop  offset="0.5122" style="stop-color:#00D2FF"/>
			<stop  offset="0.7604" style="stop-color:#00DFFF"/>
			<stop  offset="1" style="stop-color:#00E3FF"/>
		</linearGradient>
		<path class="st1" d="M10.04,7.54c-0.29,0.31-0.46,0.79-0.46,1.4v22.12c0,0.62,0.17,1.1,0.46,1.4l0.07,0.07L22.5,20.15V20v-0.15
			L10.11,7.47L10.04,7.54z"/>
		
			<linearGradient id="SVGID_2_" gradientUnits="userSpaceOnUse" x1="33.439" y1="22.8592" x2="9.2421" y2="22.8592" gradientTransform="matrix(1 0 0 -1 0 42.8608)">
			<stop  offset="0" style="stop-color:#FFE000"/>
			<stop  offset="0.4087" style="stop-color:#FFBD00"/>
			<stop  offset="0.7754" style="stop-color:#FFA500"/>
			<stop  offset="1" style="stop-color:#FF9C00"/>
		</linearGradient>
		<path class="st2" d="M26.63,24.28l-4.13-4.13V20v-0.15l4.13-4.13l0.09,0.05l4.89,2.78c1.4,0.79,1.4,2.09,0,2.89l-4.89,2.78
			L26.63,24.28z"/>
		
			<linearGradient id="SVGID_3_" gradientUnits="userSpaceOnUse" x1="24.4316" y1="20.5646" x2="1.6733" y2="-2.1937" gradientTransform="matrix(1 0 0 -1 0 42.8608)">
			<stop  offset="0" style="stop-color:#FF3A44"/>
			<stop  offset="1" style="stop-color:#C31162"/>
		</linearGradient>
		<path class="st3" d="M26.73,24.23L22.5,20L10.04,32.46c0.46,0.49,1.22,0.55,2.08,0.06L26.73,24.23"/>
		
			<linearGradient id="SVGID_4_" gradientUnits="userSpaceOnUse" x1="6.902" y1="42.6845" x2="17.0645" y2="32.522" gradientTransform="matrix(1 0 0 -1 0 42.8608)">
			<stop  offset="0" style="stop-color:#32A071"/>
			<stop  offset="0.0685" style="stop-color:#2DA771"/>
			<stop  offset="0.4762" style="stop-color:#15CF74"/>
			<stop  offset="0.8009" style="stop-color:#06E775"/>
			<stop  offset="1" style="stop-color:#00F076"/>
		</linearGradient>
		<path class="st4" d="M26.73,15.78l-14.61-8.3c-0.86-0.49-1.62-0.43-2.08,0.06L22.5,20L26.73,15.78z"/>
		<g>
			<path class="st5" d="M26.63,24.13l-14.52,8.25c-0.81,0.46-1.54,0.43-2,0.01l0,0l-0.07,0.07l0,0l0.07,0.07l0,0
				c0.47,0.42,1.19,0.45,2-0.01l14.61-8.3L26.63,24.13z"/>
			<path class="st6" d="M10.04,32.32c-0.29-0.31-0.46-0.79-0.46-1.4v0.15c0,0.62,0.17,1.1,0.46,1.4l0.07-0.07L10.04,32.32z"/>
		</g>
		<path class="st6" d="M31.62,21.3l-4.99,2.83l0.09,0.09l4.89-2.78c0.7-0.4,1.05-0.92,1.05-1.44l0,0
			C32.61,20.47,32.25,20.94,31.62,21.3z"/>
		<path class="st7" d="M12.12,7.62l19.5,11.08c0.63,0.36,0.99,0.82,1.05,1.3l0,0c0-0.52-0.35-1.05-1.05-1.44L12.12,7.48
			c-1.4-0.79-2.54-0.13-2.54,1.47v0.15C9.58,7.49,10.72,6.83,12.12,7.62z"/>
	</g>
	<g>
		<path class="st8" d="M40.94,13V7h1.83c0.92,0,1.66,0.28,2.21,0.83c0.55,0.56,0.83,1.28,0.83,2.17c0,0.89-0.28,1.61-0.83,2.17
			C44.44,12.72,43.7,13,42.78,13H40.94z M41.71,12.26h1.06c0.69,0,1.24-0.2,1.65-0.6c0.41-0.4,0.61-0.95,0.61-1.67
			c0-0.71-0.2-1.26-0.61-1.66c-0.41-0.4-0.95-0.6-1.65-0.6h-1.06V12.26z"/>
		<path class="st8" d="M46.9,13V7h0.77v6H46.9z"/>
		<path class="st8" d="M50.74,13.13c-0.44,0-0.86-0.14-1.28-0.43c-0.42-0.29-0.69-0.68-0.82-1.2l0.7-0.28
			c0.08,0.33,0.25,0.61,0.51,0.83c0.26,0.23,0.55,0.34,0.88,0.34c0.33,0,0.62-0.09,0.86-0.26c0.24-0.18,0.36-0.41,0.36-0.72
			c0-0.33-0.12-0.59-0.36-0.77c-0.24-0.18-0.61-0.35-1.13-0.51c-0.53-0.17-0.93-0.38-1.21-0.65c-0.27-0.27-0.41-0.6-0.41-1.02
			c0-0.43,0.17-0.8,0.51-1.12c0.34-0.32,0.79-0.48,1.33-0.48c0.51,0,0.92,0.13,1.24,0.38c0.32,0.25,0.53,0.53,0.62,0.83l-0.7,0.29
			c-0.05-0.19-0.17-0.37-0.37-0.53c-0.2-0.16-0.45-0.24-0.77-0.24c-0.3,0-0.55,0.08-0.76,0.25c-0.21,0.17-0.31,0.37-0.31,0.62
			c0,0.22,0.1,0.41,0.29,0.57c0.19,0.15,0.48,0.29,0.85,0.41c0.3,0.1,0.54,0.19,0.74,0.28c0.2,0.09,0.4,0.21,0.6,0.36
			c0.2,0.15,0.36,0.33,0.46,0.55c0.1,0.22,0.16,0.48,0.16,0.77s-0.06,0.55-0.18,0.78c-0.12,0.23-0.28,0.41-0.48,0.54
			c-0.2,0.13-0.41,0.24-0.64,0.31C51.21,13.1,50.98,13.13,50.74,13.13z"/>
		<path class="st8" d="M54.62,13h-0.77V7h2.04c0.51,0,0.95,0.17,1.32,0.51c0.37,0.34,0.56,0.76,0.56,1.28
			c0,0.51-0.19,0.94-0.56,1.28c-0.37,0.34-0.81,0.51-1.32,0.51h-1.27V13z M54.62,9.83h1.29c0.32,0,0.58-0.11,0.78-0.33
			c0.2-0.22,0.29-0.46,0.29-0.72s-0.1-0.5-0.29-0.72c-0.2-0.22-0.46-0.33-0.78-0.33h-1.29V9.83z"/>
		<path class="st8" d="M63.65,12.22c-0.59,0.61-1.32,0.91-2.2,0.91c-0.88,0-1.61-0.3-2.2-0.91c-0.59-0.61-0.88-1.35-0.88-2.22
			s0.29-1.62,0.88-2.22c0.59-0.61,1.32-0.91,2.2-0.91c0.87,0,1.6,0.3,2.2,0.91c0.59,0.61,0.89,1.35,0.89,2.22
			C64.53,10.88,64.24,11.62,63.65,12.22z M59.82,11.72c0.44,0.45,0.99,0.67,1.63,0.67c0.64,0,1.19-0.22,1.63-0.67
			c0.44-0.45,0.67-1.02,0.67-1.72s-0.22-1.27-0.67-1.72c-0.44-0.45-0.99-0.67-1.63-0.67c-0.64,0-1.19,0.22-1.63,0.67
			C59.37,8.73,59.15,9.3,59.15,10S59.37,11.27,59.82,11.72z"/>
		<path class="st8" d="M65.61,13V7h0.94l2.92,4.67h0.03l-0.03-1.16V7h0.77v6h-0.8l-3.05-4.89h-0.03l0.03,1.16V13H65.61z"/>
		<path class="st8" d="M71.61,13V7h0.77v6H71.61z M72.33,6.53h-0.67l0.44-1.07h0.84L72.33,6.53z"/>
		<path class="st8" d="M75.24,13l-2.11-6h0.85l1.64,4.87h0.03L77.37,7h0.85l-2.18,6H75.24z"/>
		<path class="st8" d="M82.6,7.74h-2.73v1.9h2.46v0.72h-2.46v1.9h2.73V13h-3.5V7h3.5V7.74z"/>
		<path class="st8" d="M83.81,13V7h0.77v5.26h2.6V13H83.81z"/>
		<path class="st8" d="M90.16,13V7h0.94l2.92,4.67h0.03l-0.03-1.16V7h0.77v6h-0.8l-3.05-4.89H90.9l0.03,1.16V13H90.16z"/>
		<path class="st8" d="M101.06,12.22c-0.59,0.61-1.32,0.91-2.2,0.91c-0.88,0-1.61-0.3-2.2-0.91c-0.59-0.61-0.88-1.35-0.88-2.22
			s0.29-1.62,0.88-2.22c0.59-0.61,1.32-0.91,2.2-0.91c0.87,0,1.6,0.3,2.2,0.91c0.59,0.61,0.89,1.35,0.89,2.22
			C101.95,10.88,101.65,11.62,101.06,12.22z M97.23,11.72c0.44,0.45,0.99,0.67,1.63,0.67s1.19-0.22,1.63-0.67
			c0.44-0.45,0.67-1.02,0.67-1.72s-0.22-1.27-0.67-1.72c-0.44-0.45-0.99-0.67-1.63-0.67s-1.19,0.22-1.63,0.67
			C96.79,8.73,96.57,9.3,96.57,10S96.79,11.27,97.23,11.72z"/>
	</g>
</g>
</svg>
