<?xml version="1.0" encoding="utf-8"?>
<!-- Generator: Adobe Illustrator 24.1.2, SVG Export Plug-In . SVG Version: 6.00 Build 0)  -->
<svg version="1.1" id="Layer_1" xmlns="http://www.w3.org/2000/svg" xmlns:xlink="http://www.w3.org/1999/xlink" x="0px" y="0px"
	 viewBox="0 0 135 40" style="enable-background:new 0 0 135 40;" xml:space="preserve">
<style type="text/css">
	.st0{fill:#FFFFFF;}
</style>
<g>
	<path d="M130,40H5c-2.75,0-5-2.25-5-5V5c0-2.75,2.25-5,5-5h125c2.75,0,5,2.25,5,5v30C135,37.75,132.75,40,130,40z"/>
</g>
<g>
	<g>
		<g id="_Group__8_">
			<g id="_Group_2_8_">
				<g id="_Group_3_8_">
					<path id="_Path__8_" class="st0" d="M30.1,19.39c0.02-1.81,0.97-3.49,2.52-4.44c-0.98-1.4-2.56-2.25-4.27-2.31
						c-1.8-0.19-3.54,1.07-4.45,1.07c-0.93,0-2.34-1.06-3.86-1.03c-2,0.06-3.81,1.17-4.79,2.92c-2.07,3.58-0.53,8.85,1.46,11.74
						c0.99,1.42,2.15,3,3.67,2.95c1.48-0.06,2.04-0.95,3.83-0.95c1.77,0,2.29,0.95,3.84,0.91c1.59-0.03,2.6-1.42,3.55-2.86
						c0.71-1.01,1.26-2.13,1.62-3.31C31.33,23.29,30.1,21.44,30.1,19.39z"/>
					<path id="_Path_2_8_" class="st0" d="M27.18,10.73c0.87-1.04,1.3-2.38,1.19-3.73c-1.33,0.14-2.55,0.77-3.43,1.78
						c-0.87,0.99-1.31,2.28-1.22,3.6C25.06,12.38,26.33,11.78,27.18,10.73z"/>
				</g>
			</g>
			<g>
				<path class="st0" d="M48.86,26.7h-5.06l-1.22,3.59h-2.14l4.8-13.29h2.23l4.8,13.29h-2.18L48.86,26.7z M44.32,25.05h4.01
					l-1.98-5.83H46.3L44.32,25.05z"/>
				<path class="st0" d="M62.61,25.45c0,3.01-1.61,4.94-4.04,4.94c-1.26,0.07-2.44-0.59-3.05-1.69h-0.05v4.8h-1.99V20.61h1.92v1.61
					h0.04c0.63-1.1,1.82-1.75,3.08-1.71C60.99,20.51,62.61,22.45,62.61,25.45z M60.57,25.45c0-1.96-1.01-3.25-2.56-3.25
					c-1.52,0-2.54,1.32-2.54,3.25c0,1.95,1.02,3.26,2.54,3.26C59.55,28.71,60.57,27.43,60.57,25.45z"/>
				<path class="st0" d="M73.27,25.45c0,3.01-1.61,4.94-4.04,4.94c-1.26,0.07-2.44-0.59-3.05-1.69h-0.05v4.8h-1.99V20.61h1.92v1.61
					h0.04c0.63-1.1,1.82-1.75,3.08-1.71C71.65,20.51,73.27,22.45,73.27,25.45z M71.23,25.45c0-1.96-1.01-3.25-2.56-3.25
					c-1.52,0-2.54,1.32-2.54,3.25c0,1.95,1.02,3.26,2.54,3.26C70.21,28.71,71.23,27.43,71.23,25.45L71.23,25.45z"/>
				<path class="st0" d="M80.32,26.59c0.15,1.32,1.43,2.18,3.18,2.18c1.68,0,2.88-0.87,2.88-2.05c0-1.03-0.73-1.65-2.45-2.07
					l-1.72-0.41c-2.44-0.59-3.57-1.73-3.57-3.58c0-2.29,2-3.87,4.83-3.87c2.81,0,4.73,1.57,4.8,3.87h-2.01
					c-0.12-1.33-1.22-2.13-2.82-2.13c-1.6,0-2.7,0.81-2.7,1.99c0,0.94,0.7,1.49,2.41,1.91l1.46,0.36c2.73,0.64,3.86,1.74,3.86,3.68
					c0,2.49-1.98,4.04-5.13,4.04c-2.95,0-4.94-1.52-5.06-3.92L80.32,26.59z"/>
				<path class="st0" d="M92.77,18.32v2.29h1.84v1.57h-1.84v5.34c0,0.83,0.37,1.22,1.18,1.22c0.22,0,0.44-0.02,0.65-0.05v1.57
					c-0.36,0.07-0.73,0.1-1.1,0.09c-1.96,0-2.73-0.74-2.73-2.62v-5.55h-1.41v-1.57h1.41v-2.29H92.77z"/>
				<path class="st0" d="M95.67,25.45c0-3.05,1.79-4.96,4.59-4.96c2.81,0,4.59,1.91,4.59,4.96c0,3.06-1.78,4.96-4.59,4.96
					C97.45,30.42,95.67,28.51,95.67,25.45z M102.84,25.45c0-2.09-0.96-3.32-2.57-3.32s-2.57,1.24-2.57,3.32
					c0,2.1,0.96,3.32,2.57,3.32S102.84,27.55,102.84,25.45L102.84,25.45z"/>
				<path class="st0" d="M106.5,20.61h1.9v1.65h0.05c0.26-1.06,1.24-1.79,2.33-1.75c0.23,0,0.46,0.02,0.68,0.07v1.86
					c-0.29-0.09-0.59-0.13-0.89-0.12c-1.11-0.04-2.04,0.82-2.08,1.92c0,0.1,0,0.21,0.01,0.31v5.75h-1.99L106.5,20.61z"/>
				<path class="st0" d="M120.62,27.45c-0.27,1.76-1.98,2.96-4.17,2.96c-2.82,0-4.57-1.89-4.57-4.92c0-3.04,1.76-5.01,4.48-5.01
					c2.68,0,4.36,1.84,4.36,4.78v0.68h-6.84v0.12c-0.12,1.39,0.9,2.61,2.29,2.74c0.1,0.01,0.21,0.01,0.32,0.01
					c0.96,0.09,1.87-0.46,2.24-1.36L120.62,27.45z M113.9,24.56h4.84c0.07-1.28-0.91-2.38-2.2-2.46c-0.06,0-0.12,0-0.18,0
					c-1.35-0.01-2.46,1.08-2.47,2.44C113.9,24.55,113.9,24.55,113.9,24.56z"/>
			</g>
		</g>
	</g>
	<g id="_Group_4_8_">
		<g>
			<path class="st0" d="M41.76,13.39V7.01h2.57c1.2,0,1.92,0.61,1.92,1.59c0,0.67-0.47,1.24-1.12,1.37v0.08
				c0.82,0.04,1.45,0.72,1.44,1.53c0,1.12-0.82,1.81-2.18,1.81L41.76,13.39z M42.75,9.71h1.18c0.88,0,1.33-0.32,1.33-0.93
				c0-0.59-0.43-0.93-1.16-0.93h-1.34L42.75,9.71z M44.19,12.55c0.89,0,1.37-0.36,1.37-1.04c0-0.67-0.49-1.02-1.42-1.02h-1.38v2.06
				H44.19z"/>
			<path class="st0" d="M47.58,12.03c0-0.87,0.65-1.37,1.79-1.44l1.3-0.08V10.1c0-0.51-0.34-0.8-0.99-0.8c-0.53,0-0.9,0.19-1,0.54
				h-0.92c0.1-0.83,0.88-1.36,1.97-1.36c1.21,0,1.89,0.6,1.89,1.62v3.29h-0.92v-0.68h-0.08c-0.31,0.49-0.86,0.78-1.45,0.76
				c-0.8,0.08-1.51-0.5-1.6-1.3C47.59,12.13,47.59,12.08,47.58,12.03z M50.68,11.62v-0.4l-1.18,0.08c-0.66,0.04-0.96,0.27-0.96,0.69
				c0,0.43,0.38,0.69,0.89,0.69c0.62,0.06,1.18-0.39,1.24-1.02C50.68,11.65,50.68,11.63,50.68,11.62z"/>
			<path class="st0" d="M52.99,7.15c-0.02-0.34,0.24-0.63,0.58-0.65c0.34-0.02,0.63,0.24,0.65,0.58c0.02,0.34-0.24,0.63-0.58,0.65
				c-0.01,0-0.02,0-0.04,0c-0.32,0.02-0.6-0.23-0.61-0.55C52.99,7.17,52.99,7.16,52.99,7.15z M53.13,8.58h0.95v4.82h-0.95
				L53.13,8.58z"/>
			<path class="st0" d="M57.34,11.69l-1.05,1.71h-1.04l1.6-2.4l-1.61-2.42h1.11l1.04,1.7h0.08l1.03-1.7h1.06l-1.59,2.38l1.61,2.44
				h-1.09l-1.05-1.71L57.34,11.69z"/>
			<path class="st0" d="M60.39,12.03c0-0.87,0.65-1.37,1.79-1.44l1.3-0.08V10.1c0-0.51-0.34-0.8-0.99-0.8c-0.53,0-0.9,0.19-1,0.54
				h-0.92c0.1-0.83,0.88-1.36,1.97-1.36c1.21,0,1.89,0.6,1.89,1.62v3.29h-0.92v-0.68h-0.08c-0.31,0.49-0.86,0.78-1.45,0.76
				c-0.8,0.08-1.51-0.5-1.6-1.3C60.4,12.13,60.39,12.08,60.39,12.03z M63.49,11.62v-0.4l-1.18,0.08c-0.66,0.04-0.96,0.27-0.96,0.69
				c0,0.43,0.38,0.69,0.89,0.69c0.62,0.06,1.18-0.39,1.24-1.02C63.49,11.65,63.49,11.63,63.49,11.62z"/>
			<path class="st0" d="M65.93,8.58h0.92v0.74h0.07c0.21-0.53,0.74-0.86,1.3-0.82c0.14,0,0.28,0.01,0.42,0.04v0.94
				c-0.17-0.04-0.35-0.06-0.53-0.06c-0.62-0.06-1.17,0.4-1.23,1.02c0,0.04,0,0.07,0,0.11v2.84h-0.95L65.93,8.58z"/>
			<path class="st0" d="M72.3,8.58h0.92v0.77h0.07c0.25-0.56,0.82-0.91,1.44-0.86c0.86-0.06,1.61,0.58,1.68,1.44
				c0.01,0.12,0,0.23-0.01,0.35v3.12h-0.95v-2.88c0-0.77-0.34-1.16-1.04-1.16c-0.61-0.03-1.13,0.44-1.16,1.05c0,0.06,0,0.11,0,0.17
				v2.82H72.3L72.3,8.58z"/>
			<path class="st0" d="M77.59,12.03c0-0.87,0.65-1.37,1.79-1.44l1.3-0.08V10.1c0-0.51-0.34-0.8-0.99-0.8c-0.53,0-0.9,0.19-1,0.54
				h-0.92c0.1-0.83,0.88-1.36,1.97-1.36c1.21,0,1.89,0.6,1.89,1.62v3.29h-0.92v-0.68h-0.08c-0.31,0.49-0.86,0.78-1.45,0.76
				c-0.8,0.08-1.51-0.5-1.6-1.3C77.59,12.13,77.59,12.08,77.59,12.03z M80.69,11.62v-0.4l-1.18,0.08c-0.66,0.04-0.96,0.27-0.96,0.69
				c0,0.43,0.38,0.69,0.89,0.69c0.62,0.06,1.18-0.39,1.24-1.02C80.68,11.65,80.69,11.63,80.69,11.62z"/>
		</g>
	</g>
</g>
</svg>
